<?xml version="1.0" encoding="UTF-8"?>
<svg id="Layer_1" xmlns="http://www.w3.org/2000/svg" version="1.1" viewBox="0 0 1068.98 146.15">
  <!-- Generator: Adobe Illustrator 30.3.0, SVG Export Plug-In . SVG Version: 2.1.3 Build 182)  -->
  <path d="M114.81,133.29s-14.63,11.48-41.93,11.48S0,130.98,0,73.09C0,22.64,35.88,1.61,74.87,1.61c24.78,0,39.93,8.97,39.93,8.97v7.4s-14.22-8.97-39.93-8.97c-21.11,0-58.9,7.67-58.9,64.09s34.54,64.19,58.9,64.19,39.93-11.38,39.93-11.38v7.39Z"/>
  <path d="M286.34,73.09c0,57.89-47.58,71.68-74.87,71.68s-74.87-13.79-74.87-71.68C136.59,22.64,172.47,1.61,211.46,1.61s74.87,21.03,74.87,71.48ZM270.37,73.09c0-56.42-37.79-64.09-58.9-64.09s-58.9,7.67-58.9,64.09,34.4,64.28,58.9,64.28,58.9-7.09,58.9-64.28Z"/>
  <path d="M469.93,140.98h-15.68l-12.59-107.19-53.15,103.49h-3.89l-54.1-104.24-14.64,107.94h-7.46L327.33,1.61h4.43l59.29,114.21L449.92,1.61h3.66l16.35,139.37Z"/>
  <path d="M509.95,11.66v54.19h47.92v7.41h-47.92v60.43h53.75v7.29h-69.32V4.26h69.32v7.4h-53.75Z"/>
  <path d="M665.93,140.98l-49.01-61.73h-11.49v61.73h-15.57V4.26h41.33c11.13,0,43.73,4.1,43.73,34.15,0,27.5-23.3,36.52-39.43,39.45l50.11,63.12h-19.67ZM605.43,71.86h11.93c25.51,0,41.18-6.68,41.18-31.03s-13.25-29.17-35.6-29.17h-17.5v60.2Z"/>
  <path d="M739.12,138.88c15.23,0,33.51-7.67,33.51-27.69,0-25.17-26.56-30.25-34.61-34.33-13.92-7.05-34.86-12.08-34.86-39.2S727.16.13,744.47.13s30.56,8.12,30.56,8.12v7.39s-11.84-8.12-30.49-8.12c-16.33,0-29.36,8.97-29.36,24.38s9.88,22.96,26.17,30.24c13.85,6.19,43.7,12.03,43.7,43.7,0,24.12-22.36,40.43-45.93,40.43s-36.81-10.6-36.81-10.6v-7.4c7.68,5.92,18.27,10.6,36.81,10.6Z"/>
  <path d="M809.75,4.26h15.57v136.71h-15.57V4.26Z"/>
  <path d="M936.66,89.71h-56.42l-22.81,51.27h-8.09L911.34,1.61h4.34l59.71,139.37h-16.76l-21.96-51.27ZM933.49,82.31l-24.51-57.21-25.45,57.21h49.96Z"/>
  <path d="M1068.98,133.58v7.4h-70V4.26h15.57v129.32h54.43Z"/>
</svg>