<?xml version="1.0" encoding="UTF-8"?>
<svg id="Layer_1" xmlns="http://www.w3.org/2000/svg" version="1.1" viewBox="0 0 384 384">
  <!-- Generator: Adobe Illustrator 30.3.0, SVG Export Plug-In . SVG Version: 2.1.3 Build 182)  -->
  <path d="M206.25,0l3.92.65c44.58,3.74,87.21,23.35,118.38,55.32,31.65,32.46,51.28,73.56,54.76,118.74l.69,3.8v24l-.63,3.06c-3.11,41.89-20.15,81.09-48.48,112.11-60.25,65.01-155.07,82.31-233.47,39.88L1.5,384H0v-1.5l27.15-97.04C-14.96,212.28-4.74,118.59,55.15,58.12,89.05,23.7,134.66,3.62,182.25,0h24ZM106.39,322.49c28.37,18.24,60.09,26.86,93.14,25.48,42.84-2.05,82.86-20.98,111.71-52.46,24.94-27.23,39.09-62.05,40.64-98.97,3.8-90.58-69.35-165.65-159.9-165.09-40.29.25-78.64,15.31-107.81,42.98-56.91,54.78-67.06,139.69-21.99,205.2l-16.05,58.4,60.26-15.54Z"/>
  <path d="M247.7,214.62l30.87,14.68c3.56.43,9.33,1.74,10.6,5.63,1.87,5.7-.03,12.04-1.36,17.64-1.2,5.04-3.35,9.56-7.21,13.11-6.71,6.17-14.62,11.33-23.73,13.59-9.83,2.43-20.43,2.37-30.19-.51-13.55-4.01-26.21-8.95-38.81-15.13-27.93-13.7-48.07-36.32-67.22-60.26-14.69-18.36-28.89-42.67-24.05-66.36,2.56-12.53,9.37-24.25,19.24-32.32,4.95-4.05,11.8-2.7,17.63-2.89,4.59-.15,8.47,1.19,10.4,5.77l15.91,37.87c1.4,3.34,1.78,6.38-.2,9.67-3.5,5.8-7.76,11.04-12.32,16.06-2.48,2.74-3.01,5.77-1.1,8.92,16.49,27.08,35.78,44.8,65.34,56.87,2.64,1.08,6.57,2.31,8.81-.15,6.58-7.23,12.17-14.52,18.44-22.23,1.44-1.77,6.61-1.08,8.96.03Z"/>
</svg>